<mxfile host="app.diagrams.net" modified="2021-08-23T15:36:10.904Z" agent="5.0 (Windows NT 10.0; Win64; x64) AppleWebKit/537.36 (KHTML, like Gecko) Chrome/92.0.4515.131 Safari/537.36 OPR/78.0.4093.153" etag="Pv9ouNQDIJg3YtrRkGOF" version="14.9.8" type="github">
  <diagram id="OsFwVKuo2DZqgoOdoQ98" name="Page-1">
    <mxGraphModel dx="1888" dy="548" grid="1" gridSize="10" guides="1" tooltips="1" connect="1" arrows="1" fold="1" page="1" pageScale="1" pageWidth="850" pageHeight="1100" math="0" shadow="0">
      <root>
        <mxCell id="0" />
        <mxCell id="1" parent="0" />
        <mxCell id="qXeoNUvEln3ZgCdRdpqD-1" style="edgeStyle=orthogonalEdgeStyle;rounded=0;orthogonalLoop=1;jettySize=auto;html=1;endArrow=none;endFill=0;dashed=1;" edge="1" parent="1" source="qXeoNUvEln3ZgCdRdpqD-30">
          <mxGeometry relative="1" as="geometry">
            <mxPoint x="-750" y="560" as="targetPoint" />
            <mxPoint x="-750.5" y="-100.5" as="sourcePoint" />
            <Array as="points" />
          </mxGeometry>
        </mxCell>
        <mxCell id="qXeoNUvEln3ZgCdRdpqD-2" value="" style="shape=umlActor;verticalLabelPosition=bottom;verticalAlign=top;html=1;outlineConnect=0;" vertex="1" parent="1">
          <mxGeometry x="-760" y="90" width="20" height="40" as="geometry" />
        </mxCell>
        <mxCell id="qXeoNUvEln3ZgCdRdpqD-3" style="edgeStyle=orthogonalEdgeStyle;rounded=0;orthogonalLoop=1;jettySize=auto;html=1;endArrow=none;endFill=0;dashed=1;" edge="1" parent="1" source="qXeoNUvEln3ZgCdRdpqD-4">
          <mxGeometry relative="1" as="geometry">
            <mxPoint x="-600" y="560" as="targetPoint" />
          </mxGeometry>
        </mxCell>
        <mxCell id="qXeoNUvEln3ZgCdRdpqD-4" value=":Home Page" style="rounded=0;whiteSpace=wrap;html=1;" vertex="1" parent="1">
          <mxGeometry x="-650" y="90" width="100" height="40" as="geometry" />
        </mxCell>
        <mxCell id="qXeoNUvEln3ZgCdRdpqD-7" style="edgeStyle=orthogonalEdgeStyle;rounded=0;orthogonalLoop=1;jettySize=auto;html=1;endArrow=none;endFill=0;dashed=1;" edge="1" parent="1" source="qXeoNUvEln3ZgCdRdpqD-8">
          <mxGeometry relative="1" as="geometry">
            <mxPoint x="-450" y="560" as="targetPoint" />
          </mxGeometry>
        </mxCell>
        <mxCell id="qXeoNUvEln3ZgCdRdpqD-8" value=": Timetable" style="rounded=0;whiteSpace=wrap;html=1;" vertex="1" parent="1">
          <mxGeometry x="-500" y="90" width="100" height="40" as="geometry" />
        </mxCell>
        <mxCell id="qXeoNUvEln3ZgCdRdpqD-9" value="" style="endArrow=classic;html=1;" edge="1" parent="1">
          <mxGeometry width="50" height="50" relative="1" as="geometry">
            <mxPoint x="-750" y="180" as="sourcePoint" />
            <mxPoint x="-607" y="180" as="targetPoint" />
          </mxGeometry>
        </mxCell>
        <mxCell id="qXeoNUvEln3ZgCdRdpqD-13" value="clicks Timetable" style="text;html=1;align=center;verticalAlign=middle;resizable=0;points=[];autosize=1;strokeColor=none;" vertex="1" parent="1">
          <mxGeometry x="-725" y="160" width="100" height="20" as="geometry" />
        </mxCell>
        <mxCell id="qXeoNUvEln3ZgCdRdpqD-19" value="" style="html=1;points=[];perimeter=orthogonalPerimeter;fillColor=#ffffff;" vertex="1" parent="1">
          <mxGeometry x="-755" y="160" width="10" height="160" as="geometry" />
        </mxCell>
        <mxCell id="qXeoNUvEln3ZgCdRdpqD-20" value="" style="html=1;points=[];perimeter=orthogonalPerimeter;fillColor=#ffffff;" vertex="1" parent="1">
          <mxGeometry x="-605" y="170" width="10" height="120" as="geometry" />
        </mxCell>
        <mxCell id="qXeoNUvEln3ZgCdRdpqD-21" value="" style="html=1;points=[];perimeter=orthogonalPerimeter;fillColor=#ffffff;" vertex="1" parent="1">
          <mxGeometry x="-455" y="180" width="10" height="90" as="geometry" />
        </mxCell>
        <mxCell id="qXeoNUvEln3ZgCdRdpqD-30" value="User" style="text;html=1;align=center;verticalAlign=middle;resizable=0;points=[];autosize=1;strokeColor=none;" vertex="1" parent="1">
          <mxGeometry x="-770" y="130" width="40" height="20" as="geometry" />
        </mxCell>
        <mxCell id="qXeoNUvEln3ZgCdRdpqD-34" style="edgeStyle=orthogonalEdgeStyle;rounded=0;orthogonalLoop=1;jettySize=auto;html=1;endArrow=none;endFill=0;dashed=1;" edge="1" parent="1" source="qXeoNUvEln3ZgCdRdpqD-35">
          <mxGeometry relative="1" as="geometry">
            <mxPoint x="-300" y="530" as="targetPoint" />
            <Array as="points">
              <mxPoint x="-300" y="560" />
              <mxPoint x="-300" y="560" />
            </Array>
          </mxGeometry>
        </mxCell>
        <mxCell id="qXeoNUvEln3ZgCdRdpqD-35" value=": Database" style="rounded=0;whiteSpace=wrap;html=1;" vertex="1" parent="1">
          <mxGeometry x="-350" y="90" width="100" height="40" as="geometry" />
        </mxCell>
        <mxCell id="qXeoNUvEln3ZgCdRdpqD-42" value="" style="endArrow=classic;html=1;entryX=-0.02;entryY=0.222;entryDx=0;entryDy=0;entryPerimeter=0;" edge="1" parent="1" target="qXeoNUvEln3ZgCdRdpqD-21">
          <mxGeometry width="50" height="50" relative="1" as="geometry">
            <mxPoint x="-595" y="200" as="sourcePoint" />
            <mxPoint x="-490" y="200" as="targetPoint" />
          </mxGeometry>
        </mxCell>
        <mxCell id="qXeoNUvEln3ZgCdRdpqD-44" value="" style="endArrow=none;html=1;entryX=-0.02;entryY=0.222;entryDx=0;entryDy=0;entryPerimeter=0;startArrow=classic;startFill=1;endFill=0;dashed=1;" edge="1" parent="1">
          <mxGeometry width="50" height="50" relative="1" as="geometry">
            <mxPoint x="-745" y="280.02" as="sourcePoint" />
            <mxPoint x="-605.2" y="280" as="targetPoint" />
          </mxGeometry>
        </mxCell>
        <mxCell id="qXeoNUvEln3ZgCdRdpqD-45" value="" style="endArrow=none;html=1;entryX=-0.02;entryY=0.222;entryDx=0;entryDy=0;entryPerimeter=0;endFill=0;startArrow=classic;startFill=1;dashed=1;" edge="1" parent="1">
          <mxGeometry width="50" height="50" relative="1" as="geometry">
            <mxPoint x="-594.8" y="260.02" as="sourcePoint" />
            <mxPoint x="-455.00000000000006" y="260" as="targetPoint" />
          </mxGeometry>
        </mxCell>
        <mxCell id="qXeoNUvEln3ZgCdRdpqD-46" value="get request" style="text;html=1;align=center;verticalAlign=middle;resizable=0;points=[];autosize=1;strokeColor=none;" vertex="1" parent="1">
          <mxGeometry x="-570" y="180" width="80" height="20" as="geometry" />
        </mxCell>
        <mxCell id="qXeoNUvEln3ZgCdRdpqD-47" value="" style="html=1;points=[];perimeter=orthogonalPerimeter;fillColor=#ffffff;" vertex="1" parent="1">
          <mxGeometry x="-305" y="190" width="10" height="70" as="geometry" />
        </mxCell>
        <mxCell id="qXeoNUvEln3ZgCdRdpqD-48" value="" style="endArrow=classic;html=1;entryX=-0.02;entryY=0.222;entryDx=0;entryDy=0;entryPerimeter=0;" edge="1" parent="1">
          <mxGeometry width="50" height="50" relative="1" as="geometry">
            <mxPoint x="-445" y="210" as="sourcePoint" />
            <mxPoint x="-305.20000000000005" y="209.98000000000002" as="targetPoint" />
          </mxGeometry>
        </mxCell>
        <mxCell id="qXeoNUvEln3ZgCdRdpqD-49" value="" style="endArrow=none;html=1;entryX=-0.02;entryY=0.222;entryDx=0;entryDy=0;entryPerimeter=0;startArrow=classic;startFill=1;endFill=0;dashed=1;" edge="1" parent="1">
          <mxGeometry width="50" height="50" relative="1" as="geometry">
            <mxPoint x="-445" y="250.02" as="sourcePoint" />
            <mxPoint x="-305.20000000000005" y="250.00000000000003" as="targetPoint" />
          </mxGeometry>
        </mxCell>
        <mxCell id="qXeoNUvEln3ZgCdRdpqD-50" value="get request" style="text;html=1;align=center;verticalAlign=middle;resizable=0;points=[];autosize=1;strokeColor=none;" vertex="1" parent="1">
          <mxGeometry x="-420" y="190" width="80" height="20" as="geometry" />
        </mxCell>
        <mxCell id="qXeoNUvEln3ZgCdRdpqD-51" value="send request" style="text;html=1;align=center;verticalAlign=middle;resizable=0;points=[];autosize=1;strokeColor=none;" vertex="1" parent="1">
          <mxGeometry x="-425" y="230" width="90" height="20" as="geometry" />
        </mxCell>
        <mxCell id="qXeoNUvEln3ZgCdRdpqD-52" value="display Timetable" style="text;html=1;align=center;verticalAlign=middle;resizable=0;points=[];autosize=1;strokeColor=none;" vertex="1" parent="1">
          <mxGeometry x="-575" y="240" width="110" height="20" as="geometry" />
        </mxCell>
        <mxCell id="qXeoNUvEln3ZgCdRdpqD-53" value="display Timetable" style="text;html=1;align=center;verticalAlign=middle;resizable=0;points=[];autosize=1;strokeColor=none;" vertex="1" parent="1">
          <mxGeometry x="-730" y="260" width="110" height="20" as="geometry" />
        </mxCell>
      </root>
    </mxGraphModel>
  </diagram>
</mxfile>
